# xmcd
#
# Track frame offsets:
#	187
#	13370
#	28755
#	45082
#	61975
#	77120
#	89707
#	105657
#	118707
#	134897
#
# Disc length: 1987 seconds
#
# Revision: 2
# Processed by: cddbd v1.5.2PL0 Copyright (c) Steve Scherf et al.
# Submitted via: dBpowerAMP V4.0
#
DISCID=8907c10a
DTITLE=Barbara Mandrell - Morning Sun
DYEAR=1990
DGENRE=Country
TTITLE0=The Nearness Of You
TTITLE1=Do You Know Where Your Man Is
TTITLE2=I'm Not Your Superwoman
TTITLE3=Trying Times
TTITLE4=Crazy Arms
TTITLE5=You Wouldn't Know Love
TTITLE6=Baby I Hate
TTITLE7=It's Over For The Last Time Again
TTITLE8=Why Do Bad Things Happen To Good People
TTITLE9=You've Become The Dream
EXTD=
EXTT0=
EXTT1=
EXTT2=
EXTT3=
EXTT4=
EXTT5=
EXTT6=
EXTT7=
EXTT8=
EXTT9=
PLAYORDER=
